<svg width="1250" height="1250" viewBox="0 0 1250 1250" fill="none" xmlns="http://www.w3.org/2000/svg">
<path d="M1176.75 453.391H186.65V1113.89H1176.75V453.391Z" fill="#D6DCFC" stroke="#2E263A" stroke-width="1.5" stroke-miterlimit="10"/>
<path d="M186.65 453.391H73.25V1113.89H186.65V453.391Z" fill="#977FF8" stroke="#2E263A" stroke-width="1.5" stroke-miterlimit="10"/>
<path d="M1176.75 342.195H73.25V453.445H1176.75V342.195Z" fill="#2E263A" stroke="#2E263A" stroke-width="1.5" stroke-miterlimit="10"/>
<path d="M73.25 779.047H186.35" stroke="#2E263A" stroke-width="1.5" stroke-miterlimit="10"/>
<path d="M107.85 523.359H152" stroke="#2E263A" stroke-width="1.5" stroke-miterlimit="10"/>
<path d="M129.949 501.305V545.455" stroke="#2E263A" stroke-width="1.5" stroke-miterlimit="10"/>
<path d="M114.85 710.344H159" stroke="#2E263A" stroke-width="1.5" stroke-miterlimit="10"/>
<path d="M114.85 724.094H159" stroke="#2E263A" stroke-width="1.5" stroke-miterlimit="10"/>
<path d="M100.85 696.648H145.05" stroke="#2E263A" stroke-width="1.5" stroke-miterlimit="10"/>
<path d="M132.15 597.602H110.75V644.452H149.1V614.602L132.15 597.602Z" stroke="#2E263A" stroke-width="1.5" stroke-miterlimit="10"/>
<path d="M142.9 617.152L129.6 603.852V617.152H142.9Z" fill="#2E263A"/>
<path d="M800.45 55.8516C742.1 55.8516 698.3 154.202 668.7 255.002C637.5 361.302 622.2 471.652 622.2 582.452V1019.65H978.75V582.452C978.75 471.652 963.45 361.302 932.25 255.002C902.65 154.202 858.8 55.8516 800.5 55.8516H800.45Z" fill="#2E263A" stroke="#2E263A" stroke-width="1.5" stroke-miterlimit="10"/>
<path d="M971.499 261.562C959.549 261.562 950.549 281.713 944.499 302.363C938.099 324.163 934.949 346.763 934.949 369.463V1018.76H1008V369.463C1008 346.763 1004.85 324.163 998.449 302.363C992.399 281.713 983.399 261.562 971.449 261.562H971.499Z" fill="#B2A1F9" stroke="#2E263A" stroke-width="1.5" stroke-miterlimit="10"/>
<path d="M1008.05 385.164H934.999V393.514H1008.05V385.164Z" fill="#2E263A" stroke="#2E263A" stroke-width="1.5" stroke-miterlimit="10"/>
<path d="M1008 601.266H934.949V609.616H1008V601.266Z" fill="#2E263A" stroke="#2E263A" stroke-width="1.5" stroke-miterlimit="10"/>
<path d="M1008.05 619.164H934.999V627.514H1008.05V619.164Z" fill="#2E263A" stroke="#2E263A" stroke-width="1.5" stroke-miterlimit="10"/>
<path d="M1008.05 835.211H934.999V843.561H1008.05V835.211Z" fill="#2E263A" stroke="#2E263A" stroke-width="1.5" stroke-miterlimit="10"/>
<path d="M629.4 261.562C617.45 261.562 608.45 281.713 602.4 302.363C596 324.163 592.85 346.763 592.85 369.463V1018.76H665.9V369.463C665.9 346.763 662.75 324.163 656.35 302.363C650.3 281.713 641.3 261.562 629.35 261.562H629.4Z" fill="#B2A1F9" stroke="#2E263A" stroke-width="1.5" stroke-miterlimit="10"/>
<path d="M665.9 385.164H592.85V393.514H665.9V385.164Z" fill="#2E263A" stroke="#2E263A" stroke-width="1.5" stroke-miterlimit="10"/>
<path d="M665.9 601.211H592.85V609.561H665.9V601.211Z" fill="#2E263A" stroke="#2E263A" stroke-width="1.5" stroke-miterlimit="10"/>
<path d="M665.949 619.109H592.899V627.459H665.949V619.109Z" fill="#2E263A" stroke="#2E263A" stroke-width="1.5" stroke-miterlimit="10"/>
<path d="M665.9 835.211H592.85V843.561H665.9V835.211Z" fill="#2E263A" stroke="#2E263A" stroke-width="1.5" stroke-miterlimit="10"/>
<path d="M876.3 738.612L904.7 773.263C933.95 899.963 1028.05 1001.71 1152.1 1040.81L1152.5 1040.96L1184.35 1123.81L831.7 1139.76V735.062L876.3 738.663V738.612Z" fill="#EFA9FB" stroke="#2E263A" stroke-width="1.5" stroke-miterlimit="10"/>
<path d="M831.7 1123.81V1139.71L1184.35 1123.81H831.7Z" fill="#2E263A" stroke="#2E263A" stroke-width="1.5" stroke-miterlimit="10"/>
<path d="M724.6 738.612L696.2 773.263C666.95 899.963 572.85 1001.71 448.8 1040.81L448.4 1040.96L416.55 1123.81L769.2 1139.76V735.062L724.6 738.663V738.612Z" fill="#EFA9FB" stroke="#2E263A" stroke-width="1.5" stroke-miterlimit="10"/>
<path d="M769.2 1123.81V1139.71L416.55 1123.81H769.2Z" fill="#2E263A" stroke="#2E263A" stroke-width="1.5" stroke-miterlimit="10"/>
<path d="M800.45 389.352C773.3 389.352 752.9 435.102 739.15 482.002C724.6 531.502 717.5 582.852 717.5 634.402V1139.75H883.45V634.402C883.45 582.852 876.35 531.502 861.8 482.002C848 435.102 827.65 389.352 800.5 389.352H800.45Z" fill="#EFA9FB" stroke="#2E263A" stroke-width="1.5" stroke-miterlimit="10"/>
<path d="M804.65 623.102H796.3V937.352H804.65V623.102Z" fill="#2E263A" stroke="#2E263A" stroke-width="1.5" stroke-miterlimit="10"/>
<path d="M800.449 1002.6C864.799 1002.6 917.049 1054.85 917.049 1119.2V1194.1H832.249C814.699 1194.1 800.399 1179.85 800.399 1162.25V1002.55L800.449 1002.6Z" fill="#EFA9FB" stroke="#2E263A" stroke-width="1.5" stroke-miterlimit="10"/>
<path d="M768.65 1194.16H683.85V1119.26C683.85 1054.91 736.1 1002.66 800.45 1002.66V1162.36C800.45 1179.91 786.2 1194.21 768.6 1194.21L768.65 1194.16Z" fill="#EFA9FB" stroke="#2E263A" stroke-width="1.5" stroke-miterlimit="10"/>
<path d="M800.45 406.802C826.9 406.802 847.85 443.802 863.45 487.852C849.65 438.952 828.7 389.352 800.45 389.352C772.2 389.352 751.2 439.002 737.45 487.852C753.05 443.802 774 406.802 800.45 406.802Z" fill="#2E263A" stroke="#2E263A" stroke-width="1.5" stroke-miterlimit="10"/>
<path d="M868.55 565.606C862.65 533.356 834.4 508.906 800.45 508.906C766.5 508.906 737.65 533.856 732.2 566.656C751.1 551.656 775.05 542.706 801.05 542.706C827.05 542.706 849.9 551.256 868.6 565.656L868.55 565.606Z" fill="#2E263A" stroke="#2E263A" stroke-width="1.5" stroke-miterlimit="10"/>
<path d="M82.9502 146.805L144.05 493.105H459.7L484.55 514.255L501.95 493.105H541L479.95 146.805H82.9502Z" fill="white" stroke="#2E263A" stroke-width="1.5" stroke-miterlimit="10"/>
<path d="M290.85 200.205C374.2 198.105 448.9 279.405 439.4 359.305C429.6 443.455 334.4 477.855 253.8 428.355C205.9 399.405 174.45 347.155 173.65 296.105C172.15 244.155 204.2 199.455 252.2 185.205C262.1 182.155 274.1 188.105 279 198.555C284.1 209.355 279.5 220.755 268.95 223.305C218.2 235.755 193.75 287.705 212.15 341.155C230.7 396.605 291.2 436.455 345.85 430.155C412.25 423.505 446.3 357.305 419.4 291.455C398.9 239.755 344 201.105 290.9 200.205H290.85Z" fill="#EFA9FB" stroke="#2E263A" stroke-width="1.5" stroke-miterlimit="10"/>
<path d="M355.55 291.859H258.55C254.05 291.859 251.05 295.509 251.85 300.009L259.6 343.859C260.4 348.359 264.65 352.009 269.15 352.009H366.15C370.65 352.009 373.65 348.359 372.85 343.859L365.1 300.009C364.3 295.509 360.05 291.859 355.55 291.859Z" fill="#2E263A" stroke="#2E263A" stroke-width="1.5" stroke-miterlimit="10"/>
<path d="M281.899 309.359L286.149 333.559H283.199L279.499 312.459H279.349L274.149 316.359L273.649 313.359L278.999 309.359H281.949H281.899Z" fill="white"/>
<path d="M299.849 333.863C298.049 333.863 296.449 333.363 295.049 332.413C293.649 331.463 292.399 330.013 291.449 328.163C290.449 326.313 289.749 324.063 289.249 321.463C288.799 318.863 288.749 316.613 289.049 314.763C289.349 312.913 290.099 311.513 291.199 310.513C292.299 309.513 293.699 309.062 295.449 309.062C297.199 309.062 298.799 309.563 300.249 310.513C301.699 311.513 302.899 312.913 303.899 314.763C304.899 316.613 305.599 318.863 306.099 321.463C306.549 324.113 306.649 326.313 306.299 328.163C305.949 330.013 305.249 331.413 304.199 332.413C303.149 333.413 301.699 333.863 299.899 333.863H299.849ZM299.399 331.263C301.149 331.263 302.399 330.413 303.049 328.713C303.749 327.013 303.799 324.613 303.249 321.463C302.899 319.363 302.349 317.563 301.649 316.113C300.949 314.663 300.099 313.513 299.149 312.763C298.199 312.013 297.099 311.613 295.949 311.613C294.199 311.613 292.999 312.463 292.299 314.213C291.599 315.963 291.549 318.363 292.099 321.513C292.449 323.613 292.999 325.363 293.699 326.863C294.399 328.313 295.249 329.463 296.199 330.213C297.149 330.963 298.249 331.363 299.399 331.363V331.263Z" fill="white"/>
<path d="M320.349 333.863C318.549 333.863 316.949 333.363 315.549 332.413C314.149 331.463 312.899 330.013 311.949 328.163C310.949 326.313 310.249 324.063 309.749 321.463C309.299 318.863 309.249 316.613 309.549 314.763C309.899 312.913 310.599 311.513 311.699 310.513C312.799 309.513 314.199 309.062 315.949 309.062C317.699 309.062 319.299 309.563 320.749 310.513C322.199 311.463 323.399 312.913 324.399 314.763C325.399 316.613 326.099 318.863 326.599 321.463C327.049 324.113 327.149 326.313 326.799 328.163C326.449 330.013 325.749 331.413 324.699 332.413C323.649 333.413 322.199 333.863 320.399 333.863H320.349ZM319.849 331.263C321.599 331.263 322.849 330.413 323.499 328.713C324.199 327.013 324.249 324.613 323.699 321.463C323.349 319.363 322.799 317.563 322.099 316.113C321.399 314.663 320.549 313.513 319.599 312.763C318.649 312.013 317.549 311.613 316.399 311.613C314.649 311.613 313.449 312.463 312.749 314.213C312.049 315.963 311.999 318.363 312.549 321.513C312.899 323.613 313.449 325.363 314.149 326.863C314.849 328.313 315.699 329.463 316.649 330.213C317.599 330.963 318.699 331.363 319.849 331.363V331.263Z" fill="white"/>
<path d="M328.85 315.158L328.65 313.858C328.5 312.958 328.55 312.158 328.75 311.408C329 310.658 329.4 310.058 330.05 309.658C330.7 309.208 331.5 309.008 332.5 309.008C333.5 309.008 334.4 309.208 335.2 309.658C335.95 310.108 336.6 310.708 337.1 311.408C337.6 312.158 337.9 312.958 338.05 313.858L338.25 315.158C338.4 316.058 338.35 316.858 338.15 317.608C337.9 318.358 337.5 318.958 336.9 319.358C336.3 319.758 335.45 320.008 334.45 320.008C333.45 320.008 332.55 319.808 331.75 319.358C330.95 318.908 330.35 318.308 329.85 317.608C329.35 316.858 329.05 316.058 328.9 315.158H328.85ZM331 313.908L331.2 315.208C331.35 315.958 331.6 316.608 332.05 317.158C332.5 317.758 333.15 318.008 334 318.008C334.85 318.008 335.35 317.708 335.6 317.158C335.85 316.558 335.9 315.908 335.75 315.208L335.5 313.908C335.35 313.158 335.1 312.508 334.65 311.958C334.2 311.358 333.6 311.108 332.75 311.108C331.9 311.108 331.4 311.408 331.15 311.958C330.9 312.508 330.85 313.208 330.95 313.908H331ZM332.95 333.558L345.3 309.358H348L335.65 333.558H332.95ZM343.3 329.008L343.1 327.708C342.95 326.808 343 326.008 343.2 325.258C343.45 324.508 343.85 323.908 344.5 323.508C345.1 323.058 345.95 322.858 346.95 322.858C347.95 322.858 348.85 323.058 349.65 323.508C350.45 323.958 351.05 324.558 351.55 325.258C352.05 326.008 352.35 326.808 352.5 327.708L352.7 329.008C352.85 329.908 352.8 330.708 352.6 331.458C352.35 332.208 351.95 332.808 351.35 333.208C350.75 333.658 349.9 333.858 348.9 333.858C347.9 333.858 347 333.658 346.2 333.208C345.4 332.758 344.8 332.158 344.3 331.458C343.8 330.708 343.5 329.908 343.35 329.008H343.3ZM345.5 327.758L345.75 329.058C345.9 329.808 346.15 330.458 346.6 331.008C347.05 331.608 347.7 331.858 348.55 331.858C349.4 331.858 349.9 331.558 350.15 331.008C350.4 330.408 350.45 329.758 350.3 329.058L350.1 327.758C349.95 327.008 349.7 326.358 349.25 325.808C348.8 325.208 348.2 324.958 347.35 324.958C346.5 324.958 346 325.258 345.75 325.808C345.5 326.408 345.45 327.058 345.55 327.758H345.5Z" fill="white"/>
<path d="M150 171.812L157.4 185.012L171.45 190.062L159.15 195.113L156.45 208.312L149.05 195.113L135 190.062L147.3 185.012L150 171.812Z" fill="#2E263A"/>
<path d="M463.65 294.461L469.55 305.011L480.8 309.011L471 313.061L468.8 323.611L462.9 313.061L451.65 309.011L461.45 305.011L463.65 294.461Z" fill="#2E263A"/>
<path d="M240.8 451.266L245.5 459.666L254.5 462.916L246.65 466.166L244.9 474.616L240.15 466.166L231.15 462.916L239.05 459.666L240.8 451.266Z" fill="#2E263A"/>
<path d="M294.7 747.5L340.65 784.4L386.55 747.5L349.7 793.45L386.55 839.4L340.65 802.5L294.7 839.4L331.6 793.45L294.7 747.5Z" fill="#2E263A"/>
<path d="M1038.25 84.6016L1012.05 117.252L1038.25 149.902L1005.6 123.702L972.95 149.902L999.2 117.252L972.95 84.6016L1005.6 110.802L1038.25 84.6016Z" fill="#2E263A"/>
<path d="M1135.75 887.906L1115.9 912.656L1135.75 937.356L1111 917.506L1086.3 937.356L1106.15 912.656L1086.3 887.906L1111 907.756L1135.75 887.906Z" fill="#2E263A"/>
<path d="M427.55 934.641C433.625 934.641 438.55 929.716 438.55 923.641C438.55 917.565 433.625 912.641 427.55 912.641C421.475 912.641 416.55 917.565 416.55 923.641C416.55 929.716 421.475 934.641 427.55 934.641Z" stroke="#2E263A" stroke-width="1.5" stroke-miterlimit="10"/>
<path d="M386.55 597.594C392.625 597.594 397.55 592.669 397.55 586.594C397.55 580.519 392.625 575.594 386.55 575.594C380.475 575.594 375.55 580.519 375.55 586.594C375.55 592.669 380.475 597.594 386.55 597.594Z" stroke="#2E263A" stroke-width="1.5" stroke-miterlimit="10"/>
<path d="M1086.3 648.3C1090.8 648.3 1094.45 644.651 1094.45 640.15C1094.45 635.649 1090.8 632 1086.3 632C1081.8 632 1078.15 635.649 1078.15 640.15C1078.15 644.651 1081.8 648.3 1086.3 648.3Z" stroke="#2E263A" stroke-width="1.5" stroke-miterlimit="10"/>
<path d="M137.72 860.668C137.869 856.17 134.343 852.402 129.844 852.253C125.346 852.103 121.578 855.629 121.428 860.128C121.279 864.627 124.805 868.394 129.304 868.544C133.802 868.693 137.57 865.167 137.72 860.668Z" stroke="#2E263A" stroke-width="1.5" stroke-miterlimit="10"/>
<path d="M1176.75 200.847C1179.73 200.847 1182.15 198.429 1182.15 195.447C1182.15 192.465 1179.73 190.047 1176.75 190.047C1173.77 190.047 1171.35 192.465 1171.35 195.447C1171.35 198.429 1173.77 200.847 1176.75 200.847Z" stroke="#2E263A" stroke-width="1.5" stroke-miterlimit="10"/>
<path d="M1024.1 1061.8C1024.58 1058.86 1022.58 1056.09 1019.64 1055.61C1016.69 1055.13 1013.92 1057.13 1013.44 1060.08C1012.97 1063.02 1014.97 1065.79 1017.91 1066.27C1020.85 1066.75 1023.63 1064.75 1024.1 1061.8Z" stroke="#2E263A" stroke-width="1.5" stroke-miterlimit="10"/>
<path d="M89.7496 95.3938C92.7319 95.3938 95.1496 92.9761 95.1496 89.9938C95.1496 87.0114 92.7319 84.5938 89.7496 84.5938C86.7673 84.5938 84.3496 87.0114 84.3496 89.9938C84.3496 92.9761 86.7673 95.3938 89.7496 95.3938Z" stroke="#2E263A" stroke-width="1.5" stroke-miterlimit="10"/>
<path d="M82.9498 1170.55C85.9321 1170.55 88.3498 1168.13 88.3498 1165.15C88.3498 1162.17 85.9321 1159.75 82.9498 1159.75C79.9675 1159.75 77.5498 1162.17 77.5498 1165.15C77.5498 1168.13 79.9675 1170.55 82.9498 1170.55Z" stroke="#2E263A" stroke-width="1.5" stroke-miterlimit="10"/>
<path d="M572.15 58.9953C575.132 58.9953 577.55 56.5776 577.55 53.5953C577.55 50.613 575.132 48.1953 572.15 48.1953C569.168 48.1953 566.75 50.613 566.75 53.5953C566.75 56.5776 569.168 58.9953 572.15 58.9953Z" stroke="#2E263A" stroke-width="1.5" stroke-miterlimit="10"/>
</svg>
